<svg width="85" height="131" viewBox="0 0 85 131" fill="none" xmlns="http://www.w3.org/2000/svg">
<path d="M31.46 98L27.1 104.34L22.74 98H19L25.48 107.04V112H28.72V107.04L35.2 98H31.46ZM49.0714 109.52H39.8114V106.04H48.3114V103.58H39.8114V100.48H48.8714V98H36.5914V112H49.0714V109.52ZM58.5989 103.66C56.1389 103.32 53.8189 103.24 53.8189 101.92C53.8189 100.96 54.4989 100.18 57.3789 100.18C59.9589 100.18 61.1189 101.08 61.2389 102.08H64.3589C64.2789 99.6 62.3589 97.72 57.4189 97.72C52.2789 97.72 50.7189 99.84 50.7189 102.14C50.7189 104.34 51.9189 105.5 55.7389 106.14C59.5589 106.78 61.7189 106.64 61.7189 108.08C61.7189 109.14 60.5989 109.84 57.9389 109.84C55.3989 109.84 53.7189 109.1 53.6389 107.64H50.2789C50.2789 110.48 52.8189 112.3 57.6589 112.3C62.6389 112.3 65.1389 110.68 65.1389 107.64C65.1389 104.52 62.4589 104.2 58.5989 103.66Z" fill="#00ACB1"/>
<g filter="url(#filter0_d_1227_13403)">
<circle cx="42.5" cy="41.5" r="41.5" fill="#00ACB1"/>
</g>
<path d="M26 40.9871L36.9871 51.9741L59 30" stroke="#F3F0ED" stroke-width="5.82353" stroke-linecap="round" stroke-linejoin="round"/>
<path d="M31.46 98L27.1 104.34L22.74 98H19L25.48 107.04V112H28.72V107.04L35.2 98H31.46ZM49.0714 109.52H39.8114V106.04H48.3114V103.58H39.8114V100.48H48.8714V98H36.5914V112H49.0714V109.52ZM58.5989 103.66C56.1389 103.32 53.8189 103.24 53.8189 101.92C53.8189 100.96 54.4989 100.18 57.3789 100.18C59.9589 100.18 61.1189 101.08 61.2389 102.08H64.3589C64.2789 99.6 62.3589 97.72 57.4189 97.72C52.2789 97.72 50.7189 99.84 50.7189 102.14C50.7189 104.34 51.9189 105.5 55.7389 106.14C59.5589 106.78 61.7189 106.64 61.7189 108.08C61.7189 109.14 60.5989 109.84 57.9389 109.84C55.3989 109.84 53.7189 109.1 53.6389 107.64H50.2789C50.2789 110.48 52.8189 112.3 57.6589 112.3C62.6389 112.3 65.1389 110.68 65.1389 107.64C65.1389 104.52 62.4589 104.2 58.5989 103.66Z" fill="#00ACB1"/>
<g filter="url(#filter1_d_1227_13403)">
<circle cx="42.5" cy="41.5" r="41.5" fill="#00ACB1"/>
</g>
<path d="M26 40.9871L36.9871 51.9741L59 30" stroke="#F3F0ED" stroke-width="5.82353" stroke-linecap="round" stroke-linejoin="round"/>
<defs>
<filter id="filter0_d_1227_13403" x="0" y="0" width="85" height="87" filterUnits="userSpaceOnUse" color-interpolation-filters="sRGB">
<feFlood flood-opacity="0" result="BackgroundImageFix"/>
<feColorMatrix in="SourceAlpha" type="matrix" values="0 0 0 0 0 0 0 0 0 0 0 0 0 0 0 0 0 0 127 0" result="hardAlpha"/>
<feMorphology radius="1" operator="erode" in="SourceAlpha" result="effect1_dropShadow_1227_13403"/>
<feOffset dy="3"/>
<feGaussianBlur stdDeviation="1"/>
<feComposite in2="hardAlpha" operator="out"/>
<feColorMatrix type="matrix" values="0 0 0 0 0 0 0 0 0 0 0 0 0 0 0 0 0 0 0.25 0"/>
<feBlend mode="normal" in2="BackgroundImageFix" result="effect1_dropShadow_1227_13403"/>
<feBlend mode="normal" in="SourceGraphic" in2="effect1_dropShadow_1227_13403" result="shape"/>
</filter>
<filter id="filter1_d_1227_13403" x="0" y="0" width="85" height="87" filterUnits="userSpaceOnUse" color-interpolation-filters="sRGB">
<feFlood flood-opacity="0" result="BackgroundImageFix"/>
<feColorMatrix in="SourceAlpha" type="matrix" values="0 0 0 0 0 0 0 0 0 0 0 0 0 0 0 0 0 0 127 0" result="hardAlpha"/>
<feMorphology radius="1" operator="erode" in="SourceAlpha" result="effect1_dropShadow_1227_13403"/>
<feOffset dy="3"/>
<feGaussianBlur stdDeviation="1"/>
<feComposite in2="hardAlpha" operator="out"/>
<feColorMatrix type="matrix" values="0 0 0 0 0 0 0 0 0 0 0 0 0 0 0 0 0 0 0.25 0"/>
<feBlend mode="normal" in2="BackgroundImageFix" result="effect1_dropShadow_1227_13403"/>
<feBlend mode="normal" in="SourceGraphic" in2="effect1_dropShadow_1227_13403" result="shape"/>
</filter>
</defs>
</svg>
