<svg width="85" height="131" viewBox="0 0 85 131" fill="none" xmlns="http://www.w3.org/2000/svg">
<g filter="url(#filter0_d_1227_13404)">
<circle cx="42.5" cy="41.5" r="41.5" fill="#00ACB1"/>
</g>
<path d="M37.76 98V108.02L30 98H26.4V112H29.62V102L37.38 112H41V98H37.76ZM51.3623 97.72C47.3223 97.72 43.0023 99.66 43.0023 105C43.0023 110.36 47.3223 112.3 51.3623 112.3C55.4023 112.3 59.7023 110.36 59.7023 105C59.7023 99.66 55.4023 97.72 51.3623 97.72ZM51.3623 109.86C47.8823 109.86 46.3023 107.76 46.3023 105C46.3023 102.26 47.8823 100.16 51.3623 100.16C54.8423 100.16 56.4223 102.26 56.4223 105C56.4223 107.76 54.8423 109.86 51.3623 109.86Z" fill="#00ACB1"/>
<path d="M55 53L31 29M31 53L55 29" stroke="#F3F0ED" stroke-width="7.28745" stroke-linecap="round"/>
<g filter="url(#filter1_d_1227_13404)">
<circle cx="42.5" cy="41.5" r="41.5" fill="#00ACB1"/>
</g>
<path d="M37.76 98V108.02L30 98H26.4V112H29.62V102L37.38 112H41V98H37.76ZM51.3623 97.72C47.3223 97.72 43.0023 99.66 43.0023 105C43.0023 110.36 47.3223 112.3 51.3623 112.3C55.4023 112.3 59.7023 110.36 59.7023 105C59.7023 99.66 55.4023 97.72 51.3623 97.72ZM51.3623 109.86C47.8823 109.86 46.3023 107.76 46.3023 105C46.3023 102.26 47.8823 100.16 51.3623 100.16C54.8423 100.16 56.4223 102.26 56.4223 105C56.4223 107.76 54.8423 109.86 51.3623 109.86Z" fill="#00ACB1"/>
<path d="M55 53L31 29M31 53L55 29" stroke="#F3F0ED" stroke-width="7.28745" stroke-linecap="round"/>
<defs>
<filter id="filter0_d_1227_13404" x="0" y="0" width="85" height="87" filterUnits="userSpaceOnUse" color-interpolation-filters="sRGB">
<feFlood flood-opacity="0" result="BackgroundImageFix"/>
<feColorMatrix in="SourceAlpha" type="matrix" values="0 0 0 0 0 0 0 0 0 0 0 0 0 0 0 0 0 0 127 0" result="hardAlpha"/>
<feMorphology radius="1" operator="erode" in="SourceAlpha" result="effect1_dropShadow_1227_13404"/>
<feOffset dy="3"/>
<feGaussianBlur stdDeviation="1"/>
<feComposite in2="hardAlpha" operator="out"/>
<feColorMatrix type="matrix" values="0 0 0 0 0 0 0 0 0 0 0 0 0 0 0 0 0 0 0.25 0"/>
<feBlend mode="normal" in2="BackgroundImageFix" result="effect1_dropShadow_1227_13404"/>
<feBlend mode="normal" in="SourceGraphic" in2="effect1_dropShadow_1227_13404" result="shape"/>
</filter>
<filter id="filter1_d_1227_13404" x="0" y="0" width="85" height="87" filterUnits="userSpaceOnUse" color-interpolation-filters="sRGB">
<feFlood flood-opacity="0" result="BackgroundImageFix"/>
<feColorMatrix in="SourceAlpha" type="matrix" values="0 0 0 0 0 0 0 0 0 0 0 0 0 0 0 0 0 0 127 0" result="hardAlpha"/>
<feMorphology radius="1" operator="erode" in="SourceAlpha" result="effect1_dropShadow_1227_13404"/>
<feOffset dy="3"/>
<feGaussianBlur stdDeviation="1"/>
<feComposite in2="hardAlpha" operator="out"/>
<feColorMatrix type="matrix" values="0 0 0 0 0 0 0 0 0 0 0 0 0 0 0 0 0 0 0.25 0"/>
<feBlend mode="normal" in2="BackgroundImageFix" result="effect1_dropShadow_1227_13404"/>
<feBlend mode="normal" in="SourceGraphic" in2="effect1_dropShadow_1227_13404" result="shape"/>
</filter>
</defs>
</svg>
