<?xml version="1.0" encoding="UTF-8" standalone="no"?><!DOCTYPE svg PUBLIC "-//W3C//DTD SVG 1.1//EN" "http://www.w3.org/Graphics/SVG/1.1/DTD/svg11.dtd"><svg width="100%" height="100%" viewBox="0 0 553 219" version="1.1" xmlns="http://www.w3.org/2000/svg" xmlns:xlink="http://www.w3.org/1999/xlink" xml:space="preserve" xmlns:serif="http://www.serif.com/" style="fill-rule:evenodd;clip-rule:evenodd;stroke-linejoin:round;stroke-miterlimit:2;"><path d="M185.043,126.734c-0.183,-3.487 -0.779,-6.887 -1.791,-10.196c-1.009,-3.304 -2.571,-6.237 -4.684,-8.812c-2.112,-2.571 -4.775,-4.688 -7.987,-6.338c-3.213,-1.654 -7.213,-2.483 -11.984,-2.483c-4.591,0 -8.541,0.787 -11.845,2.342c-3.309,1.566 -6.063,3.633 -8.267,6.2c-2.204,2.575 -3.904,5.558 -5.096,8.958c-1.2,3.4 -2.071,6.842 -2.621,10.329l54.275,0Zm-96.425,15.704c0,-12.858 1.971,-24.108 5.925,-33.75c3.946,-9.641 9.134,-17.675 15.563,-24.104c6.429,-6.429 13.821,-11.3 22.179,-14.604c8.354,-3.308 16.946,-4.958 25.762,-4.958c20.567,0 36.821,6.291 48.767,18.87c11.933,12.584 17.904,31.088 17.904,55.517c0,2.388 -0.091,5 -0.275,7.846c-0.183,2.85 -0.371,5.371 -0.55,7.583l-93.125,0c0.917,8.442 4.867,15.15 11.85,20.113c6.979,4.954 16.346,7.433 28.1,7.433c7.534,0 14.921,-0.692 22.179,-2.071c7.255,-1.371 13.175,-3.071 17.771,-5.091l5.509,33.337c-2.205,1.1 -5.142,2.204 -8.817,3.304c-3.675,1.1 -7.763,2.071 -12.258,2.892c-4.505,0.829 -9.321,1.521 -14.467,2.071c-5.142,0.55 -10.283,0.821 -15.425,0.821c-13.046,0 -24.383,-1.93 -34.025,-5.784c-9.646,-3.854 -17.633,-9.137 -23.971,-15.841c-6.337,-6.7 -11.021,-14.646 -14.05,-23.834c-3.029,-9.175 -4.546,-19.1 -4.546,-29.75" style="fill:#fff;fill-rule:nonzero;"/><path d="M259.16,73.837c6.975,-2.017 15.98,-3.9 26.996,-5.65c11.025,-1.742 22.596,-2.617 34.717,-2.617c12.304,0 22.546,1.613 30.721,4.825c8.171,3.213 14.641,7.759 19.421,13.638c4.775,5.879 8.166,12.858 10.187,20.937c2.021,8.084 3.033,17.08 3.033,26.992l0,81.833l-41.045,0l0,-76.866c0,-13.225 -1.746,-22.592 -5.234,-28.1c-3.496,-5.513 -10.016,-8.267 -19.562,-8.267c-2.942,0 -6.063,0.138 -9.367,0.413c-3.308,0.275 -6.25,0.6 -8.817,0.966l0,111.854l-41.05,0l0,-139.958Z" style="fill:#fff;fill-rule:nonzero;"/><path d="M459.171,140.229c0,12.675 2.846,22.871 8.537,30.588c5.696,7.704 14.146,11.566 25.346,11.566c3.671,0 7.075,-0.137 10.196,-0.408c3.121,-0.279 5.692,-0.6 7.717,-0.971l0,-74.658c-2.575,-1.65 -5.925,-3.029 -10.059,-4.133c-4.133,-1.1 -8.316,-1.65 -12.537,-1.65c-19.463,0 -29.2,13.225 -29.2,39.666m92.85,68.884c-3.684,1.1 -7.904,2.158 -12.679,3.162c-4.78,1.008 -9.775,1.879 -15.017,2.621c-5.238,0.729 -10.558,1.329 -15.975,1.792c-5.421,0.45 -10.604,0.687 -15.567,0.687c-11.945,0 -22.591,-1.75 -31.962,-5.233c-9.367,-3.492 -17.267,-8.496 -23.692,-15.017c-6.433,-6.517 -11.337,-14.421 -14.741,-23.696c-3.401,-9.275 -5.092,-19.7 -5.092,-31.271c0,-11.745 1.462,-22.354 4.404,-31.816c2.938,-9.459 7.162,-17.496 12.675,-24.109c5.504,-6.612 12.258,-11.662 20.254,-15.154c7.983,-3.483 17.121,-5.233 27.408,-5.233c5.692,0 10.788,0.55 15.288,1.654c4.504,1.104 9.046,2.667 13.642,4.683l0,-65.566l41.054,-6.617l0,209.113Z" style="fill:#fff;fill-rule:nonzero;"/><path d="M59.433,188.86c0,16.412 -13.304,29.717 -29.716,29.717c-16.413,0 -29.717,-13.305 -29.717,-29.717c0,-16.413 13.304,-29.717 29.717,-29.717c16.412,0 29.716,13.304 29.716,29.717" style="fill:#ff9200;fill-rule:nonzero;"/></svg>